# xmcd
#
# Track frame offsets:
#	150
#	14320
#	25481
#	38916
#	56156
#	68736
#	87453
#	99853
#	114853
#	127641
#	143364
#	155690
#	173678
#	188330
#	198176
#
# Disc length: 2789 seconds
#
# Revision: 0
# Processed by: cddbd v1.5.2PL0 Copyright (c) Steve Scherf et al.
# Submitted via: EasyCDDAExtractor 2010.6.0.0
#
DISCID=b10ae30f
DTITLE=Live at Park West - A Moment in Time and Friends
DYEAR=1900
DGENRE=Blues
TTITLE0=Another Saturday Night
TTITLE1=Cupid
TTITLE2=Workout
TTITLE3=Jesus On The Mainline
TTITLE4=Don't Let The Devil Fool You
TTITLE5=I'm Coming Lord
TTITLE6=Jesus Is A Rock
TTITLE7=Chain Gang
TTITLE8=This Little Light of Mine
TTITLE9=Lean On Me
TTITLE10=Amazing Grace
TTITLE11=Under the Boardwalk
TTITLE12=On Time God
TTITLE13=Jesus Gave Me Water
TTITLE14=It's Gonna Rain
EXTD=
EXTT0=
EXTT1=
EXTT2=
EXTT3=
EXTT4=
EXTT5=
EXTT6=
EXTT7=
EXTT8=
EXTT9=
EXTT10=
EXTT11=
EXTT12=
EXTT13=
EXTT14=
PLAYORDER=
